<svg width="84" height="85" viewBox="0 0 84 85" fill="none" xmlns="http://www.w3.org/2000/svg">
<g filter="url(#filter0_d_25_245)">
<path d="M4 79V73.4743H15.122V79H13.2683V75.3162H5.85366V79H4ZM5.85366 71.6324C5.33232 71.6324 4.89304 71.4549 4.53582 71.1C4.17861 70.7354 4 70.299 4 69.7905H15.122C15.122 70.3085 14.9385 70.745 14.5716 71.1C14.2048 71.4549 13.7703 71.6324 13.2683 71.6324H5.85366Z" fill="#092433"/>
<path d="M16.9756 79V73.4743H25.3171C25.5681 73.4743 25.7853 73.388 25.9688 73.2153C26.1522 73.033 26.2439 72.8124 26.2439 72.5534V71.6324H16.9756V69.7905H28.0976V73.4743C28.0976 73.9923 27.9141 74.4288 27.5473 74.7838C27.1804 75.1387 26.7459 75.3162 26.2439 75.3162H18.8293V79H16.9756Z" fill="#092433"/>
<path d="M29.9512 79V73.4743H38.2927C38.5437 73.4743 38.7609 73.388 38.9444 73.2153C39.1278 73.033 39.2195 72.8124 39.2195 72.5534V71.6324H29.9512V69.7905H41.0732V73.4743C41.0732 73.9923 40.8897 74.4288 40.5229 74.7838C40.156 75.1387 39.7215 75.3162 39.2195 75.3162H31.8049V79H29.9512Z" fill="#092433"/>
<path d="M47.561 79V71.6324H44.7805C44.2591 71.6324 43.8199 71.4549 43.4627 71.1C43.1054 70.7354 42.9268 70.299 42.9268 69.7905H54.0488C54.0488 70.3085 53.8653 70.745 53.4985 71.1C53.1316 71.4549 52.6972 71.6324 52.1951 71.6324H49.4146V79H47.561Z" fill="#092433"/>
<path d="M57.7561 79C57.2348 79 56.7955 78.8225 56.4383 78.4676C56.081 78.103 55.9024 77.6665 55.9024 77.1581H67.0244C67.0244 77.6761 66.841 78.1126 66.4741 78.4676C66.1072 78.8225 65.6728 79 65.1707 79H57.7561ZM57.7561 75.3162C57.2348 75.3162 56.7955 75.1387 56.4383 74.7838C56.081 74.4192 55.9024 73.9827 55.9024 73.4743H67.0244C67.0244 73.9923 66.841 74.4288 66.4741 74.7838C66.1072 75.1387 65.6728 75.3162 65.1707 75.3162H57.7561ZM57.7561 71.6324C57.2348 71.6324 56.7955 71.4549 56.4383 71.1C56.081 70.7354 55.9024 70.299 55.9024 69.7905H67.0244C67.0244 70.3085 66.841 70.745 66.4741 71.1C66.1072 71.4549 65.6728 71.6324 65.1707 71.6324H57.7561Z" fill="#092433"/>
<path d="M68.8781 79V77.1581L71.6585 74.3953L68.8781 71.6324V69.7905H70.7317V70.7115L74.439 74.3953L70.7317 78.079V79H68.8781ZM78.1463 79V78.079L74.439 74.3953L78.1463 70.7115V69.7905H80V71.6324L78.1463 73.4743H78.1319L77.2195 74.3953L80 77.1581V79H78.1463Z" fill="#092433"/>
</g>
<path d="M34.2381 12.2467L59.8464 56.2209L46.411 49.5321L34.0726 28.3442L16.036 59.883L4.6926 65.9961L34.2381 12.2467Z" fill="#14A2F1"/>
<path d="M40.9683 0L79.4197 66.0298L67.3908 59.9543L54.521 37.8538L51.7438 39.4435L48.0053 33.0236L50.7825 31.4338L36.917 7.62332L40.9683 0Z" fill="#092433"/>
<path d="M38.4286 38.5802L42.1363 44.944L25.6653 54.3707L32.3901 42.0362L38.4286 38.5802Z" fill="#092433"/>
<defs>
<filter id="filter0_d_25_245" x="0" y="67.7905" width="84" height="17.2095" filterUnits="userSpaceOnUse" color-interpolation-filters="sRGB">
<feFlood flood-opacity="0" result="BackgroundImageFix"/>
<feColorMatrix in="SourceAlpha" type="matrix" values="0 0 0 0 0 0 0 0 0 0 0 0 0 0 0 0 0 0 127 0" result="hardAlpha"/>
<feOffset dy="2"/>
<feGaussianBlur stdDeviation="2"/>
<feComposite in2="hardAlpha" operator="out"/>
<feColorMatrix type="matrix" values="0 0 0 0 0 0 0 0 0 0 0 0 0 0 0 0 0 0 0.15 0"/>
<feBlend mode="normal" in2="BackgroundImageFix" result="effect1_dropShadow_25_245"/>
<feBlend mode="normal" in="SourceGraphic" in2="effect1_dropShadow_25_245" result="shape"/>
</filter>
</defs>
</svg>
