<svg width="83" height="83" viewBox="0 0 83 83" fill="none" xmlns="http://www.w3.org/2000/svg">
<path d="M49.197 60.6528H49.674V60.5784H52.2561C52.5196 60.5784 52.7331 60.7919 52.7331 61.0554V66.5906C52.7331 70.1799 49.788 73.1152 46.2058 73.1152H22.2789C18.6916 73.1152 15.7544 70.1804 15.7544 66.5906V16.4065C15.7544 12.8223 18.6916 9.88479 22.2789 9.88479H46.2058C49.7881 9.88479 52.7329 12.8228 52.7304 16.4062V16.4065V19.5372C52.7304 19.8007 52.5169 20.0142 52.2534 20.0142H50.1429C49.8794 20.0142 49.6659 19.8007 49.6659 19.5372V18.2365C49.6659 17.4461 49.0252 16.8054 48.2348 16.8054H20.2445C19.4541 16.8054 18.8135 17.4461 18.8135 18.2365V59.2218C18.8135 60.0121 19.4541 60.6528 20.2445 60.6528H49.197ZM30.5552 66.8826C30.5552 68.9169 32.2006 70.5657 34.2382 70.5657C36.2777 70.5657 37.9268 68.9177 37.9268 66.8826C37.9268 64.8451 36.2779 63.1968 34.2382 63.1968C32.2007 63.1968 30.5552 64.8429 30.5552 66.8826Z" stroke="white" stroke-width="0.954023"/>
<path d="M23.6708 22.0645H30.7337C30.9971 22.0645 31.2107 22.2781 31.2107 22.5415V26.1037C31.2107 26.3671 30.9971 26.5807 30.7337 26.5807H23.6708C23.4074 26.5807 23.1938 26.3671 23.1938 26.1037V22.5415C23.1938 22.2781 23.4074 22.0645 23.6708 22.0645Z" stroke="white" stroke-width="0.954023"/>
<path d="M23.6708 36.0703H30.7337C30.9971 36.0703 31.2107 36.2838 31.2107 36.5473V40.1094C31.2107 40.3729 30.9971 40.5864 30.7337 40.5864H23.6708C23.4074 40.5864 23.1938 40.3729 23.1938 40.1094V36.5473C23.1938 36.2838 23.4074 36.0703 23.6708 36.0703Z" stroke="white" stroke-width="0.954023"/>
<path d="M23.6708 50.7289H30.7337C30.9971 50.7289 31.2107 50.9425 31.2107 51.2059V54.7652C31.2107 55.0287 30.9971 55.2422 30.7337 55.2422H23.6708C23.4074 55.2422 23.1938 55.0287 23.1938 54.7652V51.2059C23.1938 50.9425 23.4074 50.7289 23.6708 50.7289Z" stroke="white" stroke-width="0.954023"/>
<path d="M50.7636 47.8374L50.7636 47.8374L50.7701 47.8307C51.7517 46.8098 51.761 45.1882 50.7636 44.1907L46.9981 40.4252L50.7636 36.6598L50.7636 36.6598L50.7701 36.6531C51.7517 35.6322 51.761 34.0106 50.7636 33.0131L50.7636 33.013L50.7569 33.0066C49.736 32.0249 48.1144 32.0156 47.1169 33.0131L41.5281 38.6019L41.528 38.6018L41.5215 38.6086C40.5399 39.6295 40.5306 41.2511 41.5281 42.2486L47.1169 47.8374C47.6308 48.3513 48.2711 48.5909 48.9402 48.5909C49.6094 48.5909 50.2496 48.3513 50.7636 47.8374ZM64.7194 42.2486L64.7195 42.2486L64.7259 42.2419C65.7101 41.2184 65.7099 39.6394 64.7649 38.6156L64.7584 38.6086L64.7517 38.6019L59.1629 33.0131L59.163 33.013L59.1562 33.0066C58.1353 32.0249 56.5137 32.0156 55.5162 33.0131L55.5162 33.013L55.5097 33.0198C54.5281 34.0407 54.5187 35.6623 55.5162 36.6598L59.2804 40.4239L55.4853 44.1894L55.4852 44.1893L55.4774 44.1974C54.4958 45.2183 54.4864 46.8399 55.4839 47.8374C55.9979 48.3513 56.6381 48.5909 57.3073 48.5909C57.9764 48.5909 58.6166 48.3513 59.1306 47.8374L64.7194 42.2486ZM37.4643 40.4252C37.4643 31.7724 44.4871 24.7497 53.1399 24.7497C61.7927 24.7497 68.8155 31.7724 68.8155 40.4252C68.8155 49.078 61.7927 56.1008 53.1399 56.1008C44.4871 56.1008 37.4643 49.078 37.4643 40.4252Z" stroke="white" stroke-width="0.954023"/>
</svg>
