<svg width="529" height="166" viewBox="0 0 529 166" fill="none" xmlns="http://www.w3.org/2000/svg">
<path d="M11.4141 154.839C9.50206 154.839 7.74457 154.395 6.14158 153.507C4.5579 152.618 3.29289 151.382 2.34655 149.799C1.41952 148.196 0.956 146.399 0.956 144.41C0.956 142.421 1.41952 140.634 2.34655 139.051C3.29289 137.467 4.5579 136.231 6.14158 135.343C7.74457 134.454 9.50206 134.01 11.4141 134.01C13.3261 134.01 15.0739 134.454 16.6576 135.343C18.2606 136.231 19.5159 137.467 20.4236 139.051C21.3507 140.634 21.8142 142.421 21.8142 144.41C21.8142 146.399 21.3507 148.196 20.4236 149.799C19.4966 151.382 18.2413 152.618 16.6576 153.507C15.0739 154.395 13.3261 154.839 11.4141 154.839ZM11.4141 150.32C13.0364 150.32 14.3303 149.779 15.296 148.698C16.281 147.616 16.7735 146.187 16.7735 144.41C16.7735 142.614 16.281 141.185 15.296 140.123C14.3303 139.041 13.0364 138.5 11.4141 138.5C9.77245 138.5 8.45915 139.031 7.47418 140.094C6.50853 141.156 6.0257 142.595 6.0257 144.41C6.0257 146.206 6.50853 147.645 7.47418 148.727C8.45915 149.789 9.77245 150.32 11.4141 150.32ZM45.1966 138.298C47.2051 138.298 48.7985 138.906 49.9766 140.123C51.174 141.339 51.7727 143.029 51.7727 145.192V154.636H46.8479V145.859C46.8479 144.816 46.5678 144.014 46.0077 143.454C45.467 142.875 44.7137 142.585 43.7481 142.585C42.7824 142.585 42.0196 142.875 41.4595 143.454C40.9187 144.014 40.6483 144.816 40.6483 145.859V154.636H35.7235V145.859C35.7235 144.816 35.4434 144.014 34.8834 143.454C34.3426 142.875 33.5894 142.585 32.6237 142.585C31.6581 142.585 30.8952 142.875 30.3351 143.454C29.7944 144.014 29.524 144.816 29.524 145.859V154.636H24.5702V138.471H29.524V140.499C30.0261 139.823 30.6828 139.292 31.4939 138.906C32.3051 138.5 33.2224 138.298 34.246 138.298C35.4628 138.298 36.5443 138.558 37.4906 139.08C38.4563 139.601 39.2095 140.345 39.7503 141.31C40.3104 140.422 41.0732 139.698 42.0389 139.138C43.0045 138.578 44.0571 138.298 45.1966 138.298ZM65.087 138.298C66.9797 138.298 68.4861 138.916 69.6063 140.152C70.7457 141.368 71.3155 143.049 71.3155 145.192V154.636H66.3906V145.859C66.3906 144.777 66.1106 143.937 65.5505 143.338C64.9904 142.74 64.2372 142.44 63.2909 142.44C62.3445 142.44 61.5913 142.74 61.0312 143.338C60.4712 143.937 60.1911 144.777 60.1911 145.859V154.636H55.2373V138.471H60.1911V140.615C60.6933 139.901 61.3692 139.34 62.219 138.935C63.0688 138.51 64.0248 138.298 65.087 138.298ZM77.2493 136.791C76.3802 136.791 75.6656 136.54 75.1055 136.038C74.5648 135.516 74.2944 134.879 74.2944 134.126C74.2944 133.353 74.5648 132.716 75.1055 132.214C75.6656 131.692 76.3802 131.432 77.2493 131.432C78.0991 131.432 78.7943 131.692 79.3351 132.214C79.8952 132.716 80.1752 133.353 80.1752 134.126C80.1752 134.879 79.8952 135.516 79.3351 136.038C78.7943 136.54 78.0991 136.791 77.2493 136.791ZM79.7117 138.471V154.636H74.7579V138.471H79.7117ZM88.6007 144.439C88.6007 142.431 89.0352 140.644 89.9043 139.08C90.7734 137.496 91.9805 136.27 93.5255 135.401C95.0899 134.512 96.857 134.068 98.827 134.068C101.241 134.068 103.308 134.705 105.026 135.98C106.745 137.255 107.894 138.993 108.474 141.195H103.028C102.622 140.345 102.043 139.698 101.289 139.254C100.555 138.809 99.7154 138.587 98.769 138.587C97.2433 138.587 96.0072 139.118 95.0609 140.181C94.1146 141.243 93.6414 142.662 93.6414 144.439C93.6414 146.216 94.1146 147.635 95.0609 148.698C96.0072 149.76 97.2433 150.291 98.769 150.291C99.7154 150.291 100.555 150.069 101.289 149.625C102.043 149.181 102.622 148.534 103.028 147.684H108.474C107.894 149.885 106.745 151.624 105.026 152.898C103.308 154.154 101.241 154.781 98.827 154.781C96.857 154.781 95.0899 154.347 93.5255 153.478C91.9805 152.589 90.7734 151.363 89.9043 149.799C89.0352 148.234 88.6007 146.448 88.6007 144.439ZM118.866 154.868C117.282 154.868 115.853 154.53 114.578 153.854C113.323 153.178 112.328 152.213 111.594 150.957C110.88 149.702 110.523 148.234 110.523 146.554C110.523 144.893 110.89 143.435 111.623 142.18C112.357 140.905 113.362 139.93 114.636 139.254C115.911 138.578 117.34 138.24 118.924 138.24C120.507 138.24 121.937 138.578 123.211 139.254C124.486 139.93 125.49 140.905 126.224 142.18C126.958 143.435 127.325 144.893 127.325 146.554C127.325 148.215 126.948 149.683 126.195 150.957C125.461 152.213 124.447 153.178 123.153 153.854C121.879 154.53 120.45 154.868 118.866 154.868ZM118.866 150.581C119.812 150.581 120.614 150.233 121.27 149.538C121.946 148.843 122.284 147.848 122.284 146.554C122.284 145.26 121.956 144.265 121.299 143.57C120.662 142.875 119.87 142.527 118.924 142.527C117.958 142.527 117.157 142.875 116.519 143.57C115.882 144.246 115.563 145.241 115.563 146.554C115.563 147.848 115.872 148.843 116.49 149.538C117.128 150.233 117.919 150.581 118.866 150.581ZM139.803 138.298C141.695 138.298 143.202 138.916 144.322 140.152C145.462 141.368 146.031 143.049 146.031 145.192V154.636H141.106V145.859C141.106 144.777 140.826 143.937 140.266 143.338C139.706 142.74 138.953 142.44 138.007 142.44C137.06 142.44 136.307 142.74 135.747 143.338C135.187 143.937 134.907 144.777 134.907 145.859V154.636H129.953V138.471H134.907V140.615C135.409 139.901 136.085 139.34 136.935 138.935C137.785 138.51 138.741 138.298 139.803 138.298ZM159.323 138.298C161.216 138.298 162.722 138.916 163.843 140.152C164.982 141.368 165.552 143.049 165.552 145.192V154.636H160.627V145.859C160.627 144.777 160.347 143.937 159.787 143.338C159.227 142.74 158.474 142.44 157.527 142.44C156.581 142.44 155.828 142.74 155.268 143.338C154.708 143.937 154.428 144.777 154.428 145.859V154.636H149.474V138.471H154.428V140.615C154.93 139.901 155.606 139.34 156.455 138.935C157.305 138.51 158.261 138.298 159.323 138.298ZM184.232 146.293C184.232 146.757 184.203 147.24 184.145 147.742H172.934C173.011 148.746 173.33 149.518 173.89 150.059C174.47 150.581 175.174 150.841 176.005 150.841C177.241 150.841 178.1 150.32 178.583 149.277H183.856C183.585 150.339 183.093 151.295 182.378 152.145C181.683 152.995 180.804 153.661 179.742 154.144C178.68 154.627 177.492 154.868 176.179 154.868C174.595 154.868 173.185 154.53 171.949 153.854C170.713 153.178 169.747 152.213 169.052 150.957C168.357 149.702 168.009 148.234 168.009 146.554C168.009 144.874 168.347 143.406 169.023 142.151C169.719 140.895 170.684 139.93 171.92 139.254C173.156 138.578 174.576 138.24 176.179 138.24C177.743 138.24 179.134 138.568 180.35 139.225C181.567 139.881 182.513 140.818 183.189 142.035C183.885 143.251 184.232 144.671 184.232 146.293ZM179.163 144.99C179.163 144.14 178.873 143.464 178.294 142.962C177.714 142.46 176.99 142.208 176.121 142.208C175.29 142.208 174.585 142.45 174.006 142.933C173.446 143.416 173.098 144.101 172.963 144.99H179.163ZM185.861 146.554C185.861 144.874 186.199 143.406 186.875 142.151C187.57 140.895 188.526 139.93 189.743 139.254C190.979 138.578 192.389 138.24 193.972 138.24C196 138.24 197.69 138.771 199.042 139.833C200.413 140.895 201.311 142.392 201.736 144.323H196.464C196.019 143.087 195.16 142.469 193.885 142.469C192.978 142.469 192.253 142.826 191.713 143.541C191.172 144.236 190.901 145.241 190.901 146.554C190.901 147.867 191.172 148.881 191.713 149.596C192.253 150.291 192.978 150.639 193.885 150.639C195.16 150.639 196.019 150.021 196.464 148.785H201.736C201.311 150.677 200.413 152.164 199.042 153.246C197.671 154.327 195.981 154.868 193.972 154.868C192.389 154.868 190.979 154.53 189.743 153.854C188.526 153.178 187.57 152.213 186.875 150.957C186.199 149.702 185.861 148.234 185.861 146.554ZM213.396 150.436V154.636H210.875C209.079 154.636 207.679 154.202 206.675 153.333C205.67 152.444 205.168 151.006 205.168 149.016V142.585H203.198V138.471H205.168V134.532H210.122V138.471H213.367V142.585H210.122V149.074C210.122 149.557 210.238 149.905 210.47 150.117C210.701 150.33 211.088 150.436 211.628 150.436H213.396ZM222.731 154.868C221.321 154.868 220.066 154.627 218.965 154.144C217.864 153.661 216.995 153.005 216.358 152.174C215.72 151.324 215.363 150.378 215.286 149.335H220.182C220.24 149.895 220.5 150.349 220.964 150.697C221.427 151.044 221.997 151.218 222.673 151.218C223.291 151.218 223.764 151.102 224.093 150.87C224.44 150.619 224.614 150.301 224.614 149.914C224.614 149.451 224.373 149.113 223.89 148.9C223.407 148.669 222.625 148.418 221.543 148.147C220.384 147.877 219.419 147.597 218.646 147.307C217.874 146.998 217.207 146.525 216.647 145.888C216.087 145.231 215.807 144.352 215.807 143.251C215.807 142.324 216.058 141.484 216.56 140.731C217.082 139.958 217.835 139.35 218.82 138.906C219.824 138.462 221.012 138.24 222.383 138.24C224.411 138.24 226.005 138.742 227.163 139.746C228.342 140.75 229.017 142.083 229.191 143.744H224.614C224.537 143.184 224.286 142.74 223.861 142.411C223.455 142.083 222.915 141.919 222.239 141.919C221.659 141.919 221.215 142.035 220.906 142.266C220.597 142.479 220.442 142.778 220.442 143.164C220.442 143.628 220.684 143.976 221.167 144.207C221.669 144.439 222.441 144.671 223.484 144.903C224.682 145.212 225.657 145.521 226.41 145.83C227.163 146.119 227.82 146.602 228.38 147.278C228.96 147.935 229.259 148.823 229.278 149.943C229.278 150.89 229.008 151.74 228.467 152.493C227.946 153.227 227.183 153.806 226.178 154.231C225.193 154.656 224.044 154.868 222.731 154.868Z" fill="#EF6A1F"/>
<path fill-rule="evenodd" clip-rule="evenodd" d="M55.8088 77.1562C52.0382 77.1562 48.4265 76.4758 45.0898 75.231C51.3883 80.2746 59.3805 83.291 68.0771 83.291C82.259 83.291 94.5673 75.2697 100.713 63.5165H81.32C75.8188 71.7408 66.4462 77.1562 55.8088 77.1562ZM79.7073 27.2617C74.0855 20.282 65.4687 15.8161 55.8088 15.8161C52.0395 15.8161 48.4291 16.4961 45.0934 17.74C51.3913 12.6981 59.3821 9.68286 68.0771 9.68286C81.3572 9.68286 92.9945 16.7165 99.4669 27.2617H79.7073Z" fill="url(#paint0_linear_317_761)"/>
<path fill-rule="evenodd" clip-rule="evenodd" d="M68.6044 7.69141C75.3758 7.69141 81.7605 9.27996 87.3756 12.0898C78.8498 4.57711 67.5352 0 55.1207 0C35.6417 0 18.8704 11.2686 11.3311 27.4648H33.2304C40.2175 15.6571 53.4414 7.69141 68.6044 7.69141ZM32.0232 63.7196H10.3767C17.3777 81.0858 34.7717 93.3835 55.1207 93.3835C67.5326 93.3835 78.8451 88.8082 87.3704 81.2983C81.7565 84.1065 75.3737 85.6941 68.6044 85.6941C52.5172 85.6941 38.6126 76.7278 32.0232 63.7196Z" fill="url(#paint1_linear_317_761)"/>
<path d="M20.935 35.9707C22.951 35.9707 24.6714 36.2106 26.0961 36.6904C27.5207 37.1702 28.69 37.85 29.604 38.7296C30.5448 39.6093 31.2303 40.6889 31.6603 41.9684C32.0904 43.2279 32.3055 44.6473 32.3055 46.2267C32.3055 47.7861 32.0636 49.2155 31.5797 50.515C31.1227 51.7945 30.397 52.8941 29.4024 53.8137C28.4347 54.7334 27.1982 55.4531 25.6929 55.9729C24.2144 56.4727 22.4537 56.7226 20.4108 56.7226C18.3948 56.7226 16.661 56.5027 15.2094 56.0628C13.7847 55.603 12.602 54.9433 11.6612 54.0836C10.7472 53.204 10.0752 52.1444 9.64513 50.9049C9.21504 49.6653 9 48.2459 9 46.6465C9 45.0871 9.22849 43.6577 9.68546 42.3582C10.1693 41.0387 10.8951 39.9092 11.8628 38.9695C12.8574 38.0099 14.1073 37.2702 15.6126 36.7504C17.1179 36.2306 18.8921 35.9707 20.935 35.9707ZM20.3705 38.7296C19.1877 38.7296 18.2066 38.9295 17.4271 39.3294C16.6475 39.7092 16.0158 40.239 15.532 40.9188C15.0481 41.5985 14.6987 42.3982 14.4836 43.3178C14.2955 44.2375 14.2014 45.2371 14.2014 46.3167C14.2014 47.3363 14.2955 48.3059 14.4836 49.2255C14.6718 50.1452 15.0078 50.9548 15.4917 51.6546C16.0024 52.3543 16.6879 52.9141 17.548 53.3339C18.4351 53.7537 19.5775 53.9637 20.9753 53.9637C22.1312 53.9637 23.0989 53.7737 23.8784 53.3939C24.6848 53.014 25.33 52.4942 25.8138 51.8345C26.2977 51.1748 26.6337 50.3951 26.8218 49.4954C27.0369 48.5758 27.1444 47.5862 27.1444 46.5266C27.1444 45.507 27.0503 44.5274 26.8622 43.5877C26.674 42.6481 26.3245 41.8184 25.8138 41.0987C25.33 40.379 24.6445 39.8092 23.7574 39.3894C22.8973 38.9495 21.7683 38.7296 20.3705 38.7296Z" fill="#585858"/>
<path d="M52.2631 56.5427H48.8761L44.3198 48.8357C44.1854 48.6158 44.0107 48.3159 43.7957 47.936C43.6075 47.5562 43.3925 47.1363 43.1505 46.6765C42.9086 46.2167 42.6533 45.7369 42.3844 45.2371C42.1156 44.7173 41.8603 44.1975 41.6183 43.6777C41.6183 44.1975 41.6049 44.7173 41.578 45.2371C41.578 45.7369 41.5646 46.2167 41.5377 46.6765C41.5108 47.1163 41.4839 47.5162 41.4571 47.876C41.4571 48.2159 41.4571 48.4858 41.4571 48.6857L41.0539 56.5427H36.5379L38.1507 36.1806H41.9006L48.7955 48.8956C49.0374 49.3555 49.3062 49.8553 49.6019 50.3951C49.9245 50.9348 50.2201 51.4646 50.4889 51.9844C50.7578 51.4646 51.04 50.9448 51.3357 50.425C51.6314 49.8853 51.9136 49.3755 52.1824 48.8956L59.1176 36.1806H62.7868L64.3997 56.5427H59.924L59.4805 48.7757C59.4536 48.2759 59.4133 47.5662 59.3595 46.6465C59.3327 45.7069 59.3058 44.7573 59.2789 43.7976C59.037 44.2974 58.7816 44.7972 58.5128 45.2971C58.2709 45.7969 58.0424 46.2667 57.8273 46.7065C57.6123 47.1463 57.4107 47.5462 57.2225 47.906C57.0344 48.2659 56.8865 48.5458 56.779 48.7457L52.2631 56.5427Z" fill="#585858"/>
<path d="M85.7515 36.2406H90.5497V56.5726H86.5579L77.3647 45.8968C76.854 45.317 76.2895 44.6673 75.6712 43.9476C75.0799 43.2079 74.5154 42.5281 73.9778 41.9084C74.0584 42.5481 74.1256 43.2179 74.1794 43.9176C74.26 44.6173 74.3003 45.2871 74.3003 45.9268L74.4213 56.5427H69.6231V36.1806H73.3729L82.8484 46.7365C83.386 47.3163 83.9236 47.936 84.4612 48.5958C85.0257 49.2355 85.5767 49.8553 86.1143 50.455C86.0606 49.8153 86.0068 49.1755 85.9531 48.5358C85.8993 47.876 85.8724 47.3163 85.8724 46.8564L85.7515 36.2406Z" fill="#585858"/>
<path d="M96.2018 36.2406H101V56.5427H96.2018V36.2406Z" fill="#585858"/>
<defs>
<linearGradient id="paint0_linear_317_761" x1="76.404" y1="107.886" x2="85.5443" y2="7.00533" gradientUnits="userSpaceOnUse">
<stop stop-color="#9F9F9F"/>
<stop offset="1" stop-color="#232323"/>
</linearGradient>
<linearGradient id="paint1_linear_317_761" x1="48.8762" y1="0" x2="48.8762" y2="93.3835" gradientUnits="userSpaceOnUse">
<stop stop-color="#EF6A1F"/>
<stop offset="1" stop-color="#AC3E00"/>
</linearGradient>
</defs>
</svg>
