<svg width="87" height="87" viewBox="0 0 87 87" fill="none" xmlns="http://www.w3.org/2000/svg">
<path d="M38.7811 60.0155C39.8837 60.0145 40.7798 59.1144 40.7798 58.0023C40.7798 56.8785 39.8845 55.9762 38.7793 55.9762C37.6521 55.9762 36.7533 56.875 36.7533 58.0022C36.7533 58.2679 36.8059 58.531 36.908 58.7763C37.0101 59.0215 37.1598 59.2442 37.3484 59.4313C37.537 59.6185 37.7608 59.7664 38.0068 59.8667C38.2526 59.9668 38.5157 60.0174 38.7811 60.0155ZM38.7811 60.0155C38.7805 60.0155 38.7799 60.0155 38.7793 60.0155V59.6655L38.782 60.0155C38.7817 60.0155 38.7814 60.0155 38.7811 60.0155ZM32.6255 65.8214C32.7772 65.0104 32.8127 64.2051 32.8048 63.5467H44.7413C44.734 64.2107 44.772 65.0197 44.9252 65.8331C45.1069 66.7976 45.4561 67.7987 46.1129 68.5673L46.1154 68.5701C46.8977 69.4662 47.9613 69.8925 49.3217 69.8925C49.4738 69.8925 49.6114 70.0301 49.6114 70.1823C49.6114 70.3427 49.4784 70.472 49.3217 70.472H28.2242C28.0675 70.472 27.9345 70.3427 27.9345 70.1823C27.9345 70.0301 28.072 69.8925 28.2242 69.8925C29.5847 69.8925 30.6495 69.4659 31.432 68.5555C32.0961 67.7865 32.4455 66.7846 32.6255 65.8214ZM9.48079 9.37637H68.0651C71.339 9.37637 73.9842 12.0216 73.9842 15.2955V32.9084H69.9759V15.2955C69.9759 14.234 69.1174 13.3718 68.0651 13.3718H9.48079C8.42843 13.3718 7.56991 14.234 7.56991 15.2955V52.5008C7.56991 53.5622 8.42843 54.4245 9.48079 54.4245H49.0101V61.5673H9.48079C6.20688 61.5673 3.56167 58.922 3.56167 55.6481V15.2955C3.56167 12.0216 6.20688 9.37637 9.48079 9.37637Z" stroke="white" stroke-width="0.7"/>
<path d="M66.5278 76.8139C66.8699 76.8157 67.2049 76.7158 67.4901 76.5269C67.7755 76.3379 67.9983 76.0684 68.1302 75.7525C68.2621 75.4366 68.2971 75.0886 68.2308 74.7528C68.1645 74.417 67.9998 74.1084 67.7578 73.8664C67.5157 73.6243 67.2072 73.4597 66.8713 73.3934C66.5355 73.327 66.1875 73.362 65.8716 73.4939C65.5557 73.6258 65.2862 73.8486 65.0972 74.134C64.9084 74.4192 64.8085 74.754 64.8102 75.0959C64.8107 76.0432 65.5806 76.8132 66.5278 76.8139ZM66.5278 76.8139C66.5276 76.8139 66.5274 76.8139 66.5272 76.8139L66.5292 76.4639V76.8139C66.5287 76.8139 66.5283 76.8139 66.5278 76.8139ZM9.54873 15.351H67.9959V19.8198H9.54873V15.351ZM40.3186 24.3619H62.8617V24.9413H40.3186V24.3619ZM34.0647 25.931V31.6883C34.0647 31.9348 33.9667 32.1712 33.7924 32.3455C33.6181 32.5198 33.3817 32.6178 33.1352 32.6178H14.8013C14.5548 32.6178 14.3184 32.5198 14.1441 32.3455C13.9698 32.1712 13.8719 31.9348 13.8719 31.6883V25.931C13.8719 25.6845 13.9698 25.4481 14.1441 25.2738C14.3184 25.0995 14.5548 25.0016 14.8013 25.0016H33.1352C33.3817 25.0016 33.6181 25.0995 33.7924 25.2738C33.9667 25.4481 34.0647 25.6845 34.0647 25.931ZM40.3186 28.52H62.8617V29.0994H40.3186V28.52ZM40.3186 32.678H46.8946V33.2575H40.3186V32.678ZM44.9448 38.7251V49.2035C44.9448 49.45 44.8469 49.6864 44.6726 49.8607C44.4983 50.035 44.2619 50.1329 44.0154 50.1329H33.5242C33.2777 50.1329 33.0413 50.035 32.867 49.8607C32.6927 49.6864 32.5948 49.45 32.5948 49.2035V38.7251C32.5948 38.4786 32.6927 38.2422 32.867 38.0679C33.0413 37.8936 33.2777 37.7957 33.5242 37.7957H44.0154C44.2619 37.7957 44.4983 37.8936 44.6726 38.0679C44.8469 38.2422 44.9448 38.4786 44.9448 38.7251ZM26.218 38.7251V49.2035C26.218 49.45 26.1201 49.6864 25.9458 49.8607C25.7715 50.035 25.5351 50.1329 25.2886 50.1329H14.7974C14.5509 50.1329 14.3145 50.035 14.1402 49.8607C13.9659 49.6864 13.868 49.45 13.868 49.2035V38.7251C13.868 38.4786 13.9659 38.2422 14.1402 38.0679C14.3145 37.8936 14.5509 37.7957 14.7974 37.7957H25.2886C25.5351 37.7957 25.7715 37.8936 25.9458 38.0679C26.1201 38.2422 26.218 38.4786 26.218 38.7251ZM54.4771 34.8876H79.9502C81.8807 34.8876 83.4384 36.4453 83.4384 38.3758V74.1354C83.4384 76.0539 81.88 77.6236 79.9502 77.6236H54.4771C52.5594 77.6236 50.9889 76.0531 50.9889 74.1354V38.3758C50.9889 36.4461 52.5586 34.8876 54.4771 34.8876ZM79.6304 72.5663C80.5424 72.5663 81.2598 71.8316 81.2598 70.9369V39.0155C81.2598 38.1058 80.5401 37.3861 79.6304 37.3861H54.797C53.9023 37.3861 53.1676 38.1035 53.1676 39.0155V70.9369C53.1676 71.8338 53.9 72.5663 54.797 72.5663H79.6304Z" stroke="white" stroke-width="0.7"/>
<path d="M58.0136 48.423H76.4223V59.4943H58.0136V48.423ZM58.0136 41.7266H76.4223V43.9328H58.0136V41.7266ZM58.0098 67.5349H72.7721V67.8143H58.0098V67.5349ZM58.0098 63.6966H76.4184V63.976H58.0098V63.6966Z" stroke="white"/>
</svg>
