<svg width="64" height="64" viewBox="0 0 64 64" fill="none" xmlns="http://www.w3.org/2000/svg">
<path d="M5.62003 17.92V17.42H5.12003H1.78003V0.5H62.22V17.42H58.88H58.38V17.92V20.48V20.98H58.88H62.22V37.9H58.88H58.38V38.4V40.96V41.46H58.88H62.22V58.38H58.88H58.38V58.88V63.5H5.62003V58.88V58.38H5.12003H1.78003V41.46H5.12003H5.62003V40.96V38.4V37.9H5.12003H1.78003V20.98H5.12003H5.62003V20.48V17.92ZM56.32 61.94H56.82V61.44V58.88V58.38H56.32H7.68003H7.18003V58.88V61.44V61.94H7.68003H56.32ZM60.66 43.52V43.02H60.16H3.84003H3.34003V43.52V56.32V56.82H3.84003H60.16H60.66V56.32V43.52ZM56.32 41.46H56.82V40.96V38.4V37.9H56.32H7.68003H7.18003V38.4V40.96V41.46H7.68003H56.32ZM60.66 23.04V22.54H60.16H3.84003H3.34003V23.04V35.84V36.34H3.84003H60.16H60.66V35.84V23.04ZM56.32 20.98H56.82V20.48V17.92V17.42H56.32H7.68003H7.18003V17.92V20.48V20.98H7.68003H56.32ZM3.84003 2.06H3.34003V2.56V15.36V15.86H3.84003H60.16H60.66V15.36V2.56V2.06H60.16H3.84003Z" fill="white" stroke="black"/>
<path d="M7.93005 6.6499H9.99005V11.2699H7.93005V6.6499ZM14.3301 6.6499H16.3901V11.2699H14.3301V6.6499ZM20.7301 6.6499H22.7901V11.2699H20.7301V6.6499ZM27.1301 6.6499H29.1901V11.2699H27.1301V6.6499ZM54.0101 7.9299H56.0701V9.9899H54.0101V7.9299ZM33.5301 7.9299H49.6701V9.9899H33.5301V7.9299ZM7.93005 27.1299H9.99005V31.7499H7.93005V27.1299ZM14.3301 27.1299H16.3901V31.7499H14.3301V27.1299ZM20.7301 27.1299H22.7901V31.7499H20.7301V27.1299ZM27.1301 27.1299H29.1901V31.7499H27.1301V27.1299ZM54.0101 28.4099H56.0701V30.4699H54.0101V28.4099ZM33.5301 28.4099H49.6701V30.4699H33.5301V28.4099ZM7.93005 47.6099H9.99005V52.2299H7.93005V47.6099ZM14.3301 47.6099H16.3901V52.2299H14.3301V47.6099ZM20.7301 47.6099H22.7901V52.2299H20.7301V47.6099ZM27.1301 47.6099H29.1901V52.2299H27.1301V47.6099ZM54.0101 48.8899H56.0701V50.9499H54.0101V48.8899ZM33.5301 48.8899H49.6701V50.9499H33.5301V48.8899Z" fill="white" stroke="black" stroke-width="0.5"/>
</svg>
