<svg width="71" height="71" viewBox="0 0 71 71" fill="none" xmlns="http://www.w3.org/2000/svg">
<path d="M28.0753 44.3801L28.0783 44.0272H27.7254H8.87646C6.63053 44.0272 4.78884 42.1855 4.78884 39.9394V8.87524C4.78884 6.62921 6.63053 4.7875 8.87646 4.7875H62.1231C64.3693 4.7875 66.2129 6.62943 66.2129 8.87524V39.9394C66.2129 42.1852 64.3693 44.0272 62.1231 44.0272H43.2829H42.93L42.9329 44.3801C42.9804 50.1296 43.8869 54.9113 44.9114 58.8872L44.9791 59.1498H45.2504H51.027C52.0438 59.1498 52.8958 60.0019 52.8958 61.0187V64.3448C52.8958 65.3616 52.0437 66.2137 51.027 66.2137H19.9639C18.9472 66.2137 18.0951 65.3616 18.0951 64.3448V61.0187C18.0951 60.0019 18.9472 59.1498 19.9639 59.1498H25.7492H26.0204L26.0882 58.8872C27.1134 54.9117 28.0268 50.1299 28.0753 44.3801ZM64.3441 35.8495H64.6941V35.4995V8.87524C64.6941 7.43306 63.5644 6.30637 62.1231 6.30637H8.87646C7.43473 6.30637 6.30765 7.43351 6.30765 8.87524V35.4995V35.8495H6.65765H64.3441ZM6.65765 37.3706H6.30765V37.7206V39.9394C6.30765 41.3812 7.43473 42.5083 8.87646 42.5083H62.1231C63.5644 42.5083 64.6941 41.3816 64.6941 39.9394V37.7206V37.3706H64.3441H6.65765ZM29.9463 44.0272H29.5991L29.5963 44.3743C29.5506 50.0289 28.6853 54.7646 27.6957 58.7148L27.5867 59.1498H28.0352H42.9666H43.4149L43.3061 58.7149C42.3177 54.7649 41.4569 50.0293 41.4119 44.3744L41.4092 44.0272H41.0619H29.9463ZM19.9639 60.6687H19.6139V61.0187V64.3448V64.6948H19.9639H51.027H51.377V64.3448V61.0187V60.6687H51.027H19.9639Z" fill="white" stroke="#001530" stroke-width="0.7"/>
<path d="M24.0825 31.7111V31.5167V15.1208V14.9264H24.2769H46.8558H47.0502V15.1208V25.6601C47.4596 25.749 47.8046 26.0107 48.005 26.3645C48.1272 26.3188 48.2562 26.2895 48.389 26.2778L48.3893 26.2778C48.4479 26.2727 48.5062 26.2713 48.5639 26.2734V11.0363C48.5639 10.2693 47.9398 9.64513 47.173 9.64513H23.9598C23.193 9.64513 22.5687 10.2694 22.5687 11.0363V31.8339C22.5687 32.6008 23.1929 33.2249 23.9598 33.2249H40.9825C40.9206 32.9863 40.9205 32.7346 40.9859 32.4901L40.9859 32.49C41.0205 32.3612 41.0717 32.2395 41.1377 32.1273C41.0373 32.0445 40.9477 31.9476 40.8713 31.8386C40.8713 31.8385 40.8713 31.8385 40.8713 31.8385L41.0305 31.7269C40.9837 31.6602 40.9441 31.5896 40.9114 31.5167L24.0825 31.7111ZM24.0825 31.7111H24.2769H40.7915H24.0825ZM45.7001 11.3333C45.2694 11.3333 44.9202 11.6825 44.9202 12.1132V12.7767C44.9202 13.2074 45.2693 13.5566 45.7001 13.5566H46.2855C46.7162 13.5566 47.0654 13.2074 47.0654 12.7767V12.1132C47.0654 11.6825 46.7163 11.3333 46.2855 11.3333H45.7001ZM42.9778 11.3333C42.5471 11.3333 42.198 11.6825 42.198 12.1132V12.7767C42.198 13.2074 42.5471 13.5566 42.9778 13.5566H43.5633C43.994 13.5566 44.3432 13.2074 44.3432 12.7767V12.1132C44.3432 11.6825 43.9941 11.3333 43.5633 11.3333H42.9778ZM40.2555 11.3333C39.8249 11.3333 39.4756 11.6825 39.4756 12.1132V12.7767C39.4756 13.2074 39.8249 13.5566 40.2555 13.5566H40.8409C41.2717 13.5566 41.6209 13.2074 41.6209 12.7767V12.1132C41.6209 11.6824 41.2717 11.3333 40.8409 11.3333H40.2555Z" stroke="white" stroke-width="0.388889"/>
<path d="M49.1496 30.1478L49.087 30.0008C48.987 29.766 48.8592 29.5461 48.7074 29.3447L48.6112 29.2169L48.714 29.0944L49.2935 28.4036L49.2937 28.4034C49.3013 28.3942 49.3052 28.3822 49.3042 28.3699L49.5046 28.3526L49.3042 28.3703C49.3031 28.3582 49.2973 28.3469 49.2878 28.3388C49.2877 28.3388 49.2877 28.3388 49.2877 28.3388L48.5119 27.6877C48.5026 27.6799 48.4904 27.676 48.4782 27.6771L48.4782 27.6771C48.4661 27.6782 48.4549 27.684 48.447 27.6933L47.8681 28.3835L47.7653 28.5062L47.6227 28.4335C47.3994 28.3198 47.1606 28.2321 46.9104 28.1742L46.7546 28.1381V27.9782V27.0772C46.7546 27.0518 46.7339 27.0312 46.7086 27.0312H45.6955C45.6703 27.0312 45.6495 27.0519 45.6495 27.0772V27.9782V28.1382L45.4937 28.1742C45.2434 28.232 45.0049 28.3197 44.7814 28.4335L44.6389 28.5061L44.5361 28.3836L43.957 27.6934C43.957 27.6934 43.957 27.6934 43.957 27.6934C43.9407 27.674 43.9117 27.6714 43.8921 27.6878L43.1163 28.3388C43.1068 28.3467 43.101 28.358 43.0999 28.3703L42.8995 28.3526M49.1496 30.1478L50.0936 32.8534C50.0967 32.8652 50.0951 32.8778 50.089 32.8883L49.5825 33.7658L49.5825 33.7658C49.5764 33.7764 49.5663 33.7841 49.5547 33.7872L49.6067 33.9815L49.5555 33.787C49.5507 33.7882 49.5462 33.7887 49.5428 33.7887C49.535 33.7887 49.527 33.7867 49.5197 33.7825C49.5197 33.7825 49.5196 33.7825 49.5196 33.7824L48.7388 33.3316L48.6005 33.2517L48.4913 33.3685C48.3184 33.5534 48.1235 33.7174 47.9109 33.8559L47.777 33.9431L47.8317 34.0933L48.14 34.9402C48.1442 34.9518 48.1437 34.9644 48.1385 34.9754L48.1385 34.9754C48.1333 34.9866 48.1239 34.9951 48.1128 34.9991L48.1128 34.9992L47.1608 35.3455L47.1599 35.3459C47.1553 35.3476 47.1503 35.3485 47.1451 35.3485C47.1384 35.3485 47.1318 35.347 47.1257 35.3442L47.1256 35.3441C47.1147 35.339 47.1062 35.3297 47.1021 35.3184L47.102 35.3182L46.7936 34.471L46.739 34.321L46.5806 34.3401C46.4561 34.355 46.3296 34.3629 46.2013 34.3629C46.073 34.3629 45.9465 34.3551 45.8223 34.3401L45.6637 34.3209L45.6091 34.471L45.3007 35.3182L45.3007 35.3182C45.2965 35.33 45.2879 35.3391 45.2773 35.3441L45.2768 35.3443C45.271 35.347 45.2643 35.3485 45.2576 35.3485C45.2529 35.3485 45.2476 35.3476 45.2419 35.3456L45.2418 35.3455L44.29 34.9992L44.2898 34.9991C44.2786 34.995 44.2693 34.9866 44.2641 34.9754C44.2591 34.9646 44.2584 34.9519 44.2627 34.9401C44.2627 34.9401 44.2627 34.9401 44.2627 34.9401L44.571 34.0931L44.6256 33.9429L44.4917 33.8557C44.2788 33.7172 44.084 33.5534 43.9114 33.3685L43.8023 33.2515L43.6638 33.3315L42.8828 33.7825L42.8827 33.7825C42.8758 33.7865 42.868 33.7886 42.8599 33.7886C42.8557 33.7886 42.8518 33.7881 42.848 33.7871L42.848 33.7871C42.836 33.7838 42.8261 33.7761 42.8203 33.766L42.8201 33.7657L42.3138 32.8885C42.3137 32.8885 42.3137 32.8885 42.3137 32.8885C42.3075 32.8777 42.3059 32.8651 42.309 32.8534L42.1147 32.8014M49.1496 30.1478L49.307 30.12L50.1942 29.9637C50.2192 29.9593 50.243 29.9759 50.2474 30.001L50.4234 30.9986L49.1496 30.1478ZM42.8995 28.3526L43.0999 28.3699C43.0988 28.3823 43.1028 28.3945 43.1105 28.4038C43.1105 28.4038 43.1105 28.4038 43.1105 28.4038L43.6901 29.0944L43.7929 29.2169L43.6967 29.3446C43.5451 29.5461 43.417 29.7662 43.317 30.0009L43.2544 30.1478L43.0971 30.1201L42.2099 29.9637C42.1851 29.9593 42.1611 29.976 42.1566 30.0011C42.1566 30.0011 42.1566 30.0011 42.1566 30.0011L41.9808 30.9986C41.9808 30.9986 41.9808 30.9986 41.9808 30.9986C41.9787 31.0104 41.9813 31.0227 41.9883 31.033C41.9957 31.0433 42.0062 31.0498 42.0178 31.0518L42.0179 31.0518L42.9058 31.2083L43.0633 31.2361L43.0717 31.3959C43.0853 31.6544 43.1303 31.9045 43.2027 32.1425L43.2493 32.2954L43.1109 32.3753L42.3305 32.8257L42.3301 32.8259C42.3201 32.8316 42.3122 32.8416 42.309 32.8537L42.1147 32.8014M42.8995 28.3526C42.8939 28.4179 42.9143 28.4829 42.9564 28.5331L42.9869 28.1848C42.9367 28.227 42.9053 28.2872 42.8995 28.3526ZM42.1147 32.8014C42.0978 32.8647 42.1067 32.9321 42.1394 32.9889L42.6459 33.8662L41.7827 30.9637C41.7713 31.0282 41.786 31.0945 41.8235 31.1483C41.8613 31.202 41.9184 31.2386 41.983 31.2499L42.8708 31.4064C42.8853 31.6815 42.9332 31.9476 43.0103 32.2011L42.2299 32.6515C42.1731 32.6841 42.1318 32.7382 42.1147 32.8014ZM49.4476 28.5329L48.8681 29.2236C49.0295 29.4379 49.1656 29.672 49.2721 29.9219L50.1593 29.7656C50.2938 29.7419 50.4218 29.8317 50.4455 29.966L49.4476 28.5329ZM49.4476 28.5329C49.4897 28.4828 49.5102 28.4179 49.5046 28.3526C49.4988 28.2872 49.4673 28.227 49.4171 28.1848L49.4476 28.5329ZM44.642 31.1901C44.642 32.0517 45.3406 32.7502 46.2021 32.7502C47.0637 32.7502 47.7623 32.0517 47.7623 31.1901C47.7623 30.3284 47.0637 29.63 46.2021 29.63C45.3407 29.63 44.642 30.3284 44.642 31.1901Z" fill="white" stroke="#00132C" stroke-width="0.402299"/>
<path d="M33.2527 24.2096L33.2527 24.2102L33.2528 24.2312C33.2528 24.2313 33.2528 24.2314 33.2528 24.2315C33.2527 24.4454 33.1454 24.6413 32.9645 24.7569C32.8635 24.8211 32.7477 24.8548 32.6289 24.8548C32.5375 24.8548 32.4495 24.8354 32.3662 24.7968C32.3662 24.7968 32.3662 24.7968 32.3662 24.7968L28.1229 22.8235C28.1228 22.8235 28.1228 22.8235 28.1228 22.8235C27.9033 22.7209 27.7617 22.4984 27.7617 22.2578V22.1988C27.7617 21.9576 27.9035 21.7352 28.1225 21.6333L32.3659 19.66C32.4465 19.6226 32.5376 19.6025 32.6283 19.6025C32.7492 19.6025 32.8652 19.6364 32.9645 19.6998L32.9647 19.6999C33.1452 19.8149 33.2527 20.0109 33.2527 20.2255V20.2469C33.2527 20.4882 33.1108 20.7106 32.8918 20.8125C32.8918 20.8125 32.8917 20.8125 32.8917 20.8125L30.2374 22.0459L29.8448 22.2283L30.2374 22.4107L32.8917 23.644L32.8917 23.644C33.1108 23.7457 33.2527 23.9682 33.2527 24.2096Z" fill="white" stroke="#00132C" stroke-width="0.402299"/>
<path d="M36.3588 17.6869L36.3589 17.6865C36.4419 17.4274 36.6802 17.2534 36.9531 17.2534H36.9742C37.1723 17.2534 37.3609 17.3492 37.4778 17.5093C37.5948 17.6696 37.6285 17.8786 37.5678 18.0672L34.7723 26.7293L34.7722 26.7298C34.6893 26.9889 34.4511 27.1628 34.1785 27.1628H34.1573C33.9593 27.1628 33.7707 27.067 33.6537 26.9071C33.537 26.7471 33.503 26.5385 33.563 26.3495C33.5631 26.3494 33.5631 26.3493 33.5631 26.3492L36.3588 17.6869Z" fill="white" stroke="#00132C" stroke-width="0.402299"/>
<path d="M38.1688 19.6996L38.1687 19.6996C37.9877 19.8149 37.8802 20.0109 37.8802 20.2254V20.2469C37.8802 20.4877 38.0219 20.7104 38.2414 20.8128C38.2414 20.8128 38.2415 20.8128 38.2415 20.8129L40.8955 22.0459L41.2882 22.2283L40.8955 22.4107L38.2412 23.6439L38.2412 23.6439C38.0222 23.7457 37.8802 23.9681 37.8802 24.2095V24.2311C37.8802 24.4451 37.9875 24.641 38.1687 24.7569C38.2692 24.8209 38.385 24.8547 38.5041 24.8547C38.5952 24.8547 38.6832 24.8354 38.7674 24.7965C38.7674 24.7965 38.7675 24.7965 38.7676 24.7965L43.0106 22.8232C43.0107 22.8232 43.0107 22.8232 43.0108 22.8232C43.2298 22.721 43.3714 22.4985 43.3714 22.2578V22.199C43.3712 21.9576 43.2293 21.7351 43.0103 21.6332L38.1688 19.6996ZM38.1688 19.6996C38.2679 19.6364 38.384 19.6025 38.5049 19.6025C38.5957 19.6025 38.6866 19.6226 38.7667 19.6598C38.7667 19.6599 38.7667 19.6599 38.7667 19.6599L43.0103 21.6332L38.1688 19.6996Z" fill="white" stroke="#00132C" stroke-width="0.402299"/>
<path d="M24.0825 31.7111V31.5167V15.1208V14.9264H24.2769H46.8558H47.0502V15.1208V25.6601C47.4596 25.749 47.8046 26.0107 48.005 26.3645C48.1272 26.3188 48.2562 26.2895 48.389 26.2778L48.3893 26.2778C48.4479 26.2727 48.5062 26.2713 48.5639 26.2734V11.0363C48.5639 10.2693 47.9398 9.64513 47.173 9.64513H23.9598C23.193 9.64513 22.5687 10.2694 22.5687 11.0363V31.8339C22.5687 32.6008 23.1929 33.2249 23.9598 33.2249H40.9825C40.9206 32.9863 40.9205 32.7346 40.9859 32.4901L40.9859 32.49C41.0205 32.3612 41.0717 32.2395 41.1377 32.1273C41.0373 32.0445 40.9477 31.9476 40.8713 31.8386C40.8713 31.8385 40.8713 31.8385 40.8713 31.8385L41.0305 31.7269C40.9837 31.6602 40.9441 31.5896 40.9114 31.5167L24.0825 31.7111ZM24.0825 31.7111H24.2769H40.7915H24.0825ZM45.7001 11.3333C45.2694 11.3333 44.9202 11.6825 44.9202 12.1132V12.7767C44.9202 13.2074 45.2693 13.5566 45.7001 13.5566H46.2855C46.7162 13.5566 47.0654 13.2074 47.0654 12.7767V12.1132C47.0654 11.6825 46.7163 11.3333 46.2855 11.3333H45.7001ZM42.9778 11.3333C42.5471 11.3333 42.198 11.6825 42.198 12.1132V12.7767C42.198 13.2074 42.5471 13.5566 42.9778 13.5566H43.5633C43.994 13.5566 44.3432 13.2074 44.3432 12.7767V12.1132C44.3432 11.6825 43.9941 11.3333 43.5633 11.3333H42.9778ZM40.2555 11.3333C39.8249 11.3333 39.4756 11.6825 39.4756 12.1132V12.7767C39.4756 13.2074 39.8249 13.5566 40.2555 13.5566H40.8409C41.2717 13.5566 41.6209 13.2074 41.6209 12.7767V12.1132C41.6209 11.6824 41.2717 11.3333 40.8409 11.3333H40.2555Z" stroke="white" stroke-width="0.388889"/>
<path d="M49.1496 30.1478L49.087 30.0008C48.987 29.766 48.8592 29.5461 48.7074 29.3447L48.6112 29.2169L48.714 29.0944L49.2935 28.4036L49.2937 28.4034C49.3013 28.3942 49.3052 28.3822 49.3042 28.3699L49.5046 28.3526L49.3042 28.3703C49.3031 28.3582 49.2973 28.3469 49.2878 28.3388C49.2877 28.3388 49.2877 28.3388 49.2877 28.3388L48.5119 27.6877C48.5026 27.6799 48.4904 27.676 48.4782 27.6771L48.4782 27.6771C48.4661 27.6782 48.4549 27.684 48.447 27.6933L47.8681 28.3835L47.7653 28.5062L47.6227 28.4335C47.3994 28.3198 47.1606 28.2321 46.9104 28.1742L46.7546 28.1381V27.9782V27.0772C46.7546 27.0518 46.7339 27.0312 46.7086 27.0312H45.6955C45.6703 27.0312 45.6495 27.0519 45.6495 27.0772V27.9782V28.1382L45.4937 28.1742C45.2434 28.232 45.0049 28.3197 44.7814 28.4335L44.6389 28.5061L44.5361 28.3836L43.957 27.6934C43.957 27.6934 43.957 27.6934 43.957 27.6934C43.9407 27.674 43.9117 27.6714 43.8921 27.6878L43.1163 28.3388C43.1068 28.3467 43.101 28.358 43.0999 28.3703L42.8995 28.3526M49.1496 30.1478L50.0936 32.8534C50.0967 32.8652 50.0951 32.8778 50.089 32.8883L49.5825 33.7658L49.5825 33.7658C49.5764 33.7764 49.5663 33.7841 49.5547 33.7872L49.6067 33.9815L49.5555 33.787C49.5507 33.7882 49.5462 33.7887 49.5428 33.7887C49.535 33.7887 49.527 33.7867 49.5197 33.7825C49.5197 33.7825 49.5196 33.7825 49.5196 33.7824L48.7388 33.3316L48.6005 33.2517L48.4913 33.3685C48.3184 33.5534 48.1235 33.7174 47.9109 33.8559L47.777 33.9431L47.8317 34.0933L48.14 34.9402C48.1442 34.9518 48.1437 34.9644 48.1385 34.9754L48.1385 34.9754C48.1333 34.9866 48.1239 34.9951 48.1128 34.9991L48.1128 34.9992L47.1608 35.3455L47.1599 35.3459C47.1553 35.3476 47.1503 35.3485 47.1451 35.3485C47.1384 35.3485 47.1318 35.347 47.1257 35.3442L47.1256 35.3441C47.1147 35.339 47.1062 35.3297 47.1021 35.3184L47.102 35.3182L46.7936 34.471L46.739 34.321L46.5806 34.3401C46.4561 34.355 46.3296 34.3629 46.2013 34.3629C46.073 34.3629 45.9465 34.3551 45.8223 34.3401L45.6637 34.3209L45.6091 34.471L45.3007 35.3182L45.3007 35.3182C45.2965 35.33 45.2879 35.3391 45.2773 35.3441L45.2768 35.3443C45.271 35.347 45.2643 35.3485 45.2576 35.3485C45.2529 35.3485 45.2476 35.3476 45.2419 35.3456L45.2418 35.3455L44.29 34.9992L44.2898 34.9991C44.2786 34.995 44.2693 34.9866 44.2641 34.9754C44.2591 34.9646 44.2584 34.9519 44.2627 34.9401C44.2627 34.9401 44.2627 34.9401 44.2627 34.9401L44.571 34.0931L44.6256 33.9429L44.4917 33.8557C44.2788 33.7172 44.084 33.5534 43.9114 33.3685L43.8023 33.2515L43.6638 33.3315L42.8828 33.7825L42.8827 33.7825C42.8758 33.7865 42.868 33.7886 42.8599 33.7886C42.8557 33.7886 42.8518 33.7881 42.848 33.7871L42.848 33.7871C42.836 33.7838 42.8261 33.7761 42.8203 33.766L42.8201 33.7657L42.3138 32.8885C42.3137 32.8885 42.3137 32.8885 42.3137 32.8885C42.3075 32.8777 42.3059 32.8651 42.309 32.8534L42.1147 32.8014M49.1496 30.1478L49.307 30.12L50.1942 29.9637C50.2192 29.9593 50.243 29.9759 50.2474 30.001L50.4234 30.9986L49.1496 30.1478ZM42.8995 28.3526L43.0999 28.3699C43.0988 28.3823 43.1028 28.3945 43.1105 28.4038C43.1105 28.4038 43.1105 28.4038 43.1105 28.4038L43.6901 29.0944L43.7929 29.2169L43.6967 29.3446C43.5451 29.5461 43.417 29.7662 43.317 30.0009L43.2544 30.1478L43.0971 30.1201L42.2099 29.9637C42.1851 29.9593 42.1611 29.976 42.1566 30.0011C42.1566 30.0011 42.1566 30.0011 42.1566 30.0011L41.9808 30.9986C41.9808 30.9986 41.9808 30.9986 41.9808 30.9986C41.9787 31.0104 41.9813 31.0227 41.9883 31.033C41.9957 31.0433 42.0062 31.0498 42.0178 31.0518L42.0179 31.0518L42.9058 31.2083L43.0633 31.2361L43.0717 31.3959C43.0853 31.6544 43.1303 31.9045 43.2027 32.1425L43.2493 32.2954L43.1109 32.3753L42.3305 32.8257L42.3301 32.8259C42.3201 32.8316 42.3122 32.8416 42.309 32.8537L42.1147 32.8014M42.8995 28.3526C42.8939 28.4179 42.9143 28.4829 42.9564 28.5331L42.9869 28.1848C42.9367 28.227 42.9053 28.2872 42.8995 28.3526ZM42.1147 32.8014C42.0978 32.8647 42.1067 32.9321 42.1394 32.9889L42.6459 33.8662L41.7827 30.9637C41.7713 31.0282 41.786 31.0945 41.8235 31.1483C41.8613 31.202 41.9184 31.2386 41.983 31.2499L42.8708 31.4064C42.8853 31.6815 42.9332 31.9476 43.0103 32.2011L42.2299 32.6515C42.1731 32.6841 42.1318 32.7382 42.1147 32.8014ZM49.4476 28.5329L48.8681 29.2236C49.0295 29.4379 49.1656 29.672 49.2721 29.9219L50.1593 29.7656C50.2938 29.7419 50.4218 29.8317 50.4455 29.966L49.4476 28.5329ZM49.4476 28.5329C49.4897 28.4828 49.5102 28.4179 49.5046 28.3526C49.4988 28.2872 49.4673 28.227 49.4171 28.1848L49.4476 28.5329ZM44.642 31.1901C44.642 32.0517 45.3406 32.7502 46.2021 32.7502C47.0637 32.7502 47.7623 32.0517 47.7623 31.1901C47.7623 30.3284 47.0637 29.63 46.2021 29.63C45.3407 29.63 44.642 30.3284 44.642 31.1901Z" fill="white" stroke="#00132C" stroke-width="0.402299"/>
<path d="M33.2527 24.2096L33.2527 24.2102L33.2528 24.2312C33.2528 24.2313 33.2528 24.2314 33.2528 24.2315C33.2527 24.4454 33.1454 24.6413 32.9645 24.7569C32.8635 24.8211 32.7477 24.8548 32.6289 24.8548C32.5375 24.8548 32.4495 24.8354 32.3662 24.7968C32.3662 24.7968 32.3662 24.7968 32.3662 24.7968L28.1229 22.8235C28.1228 22.8235 28.1228 22.8235 28.1228 22.8235C27.9033 22.7209 27.7617 22.4984 27.7617 22.2578V22.1988C27.7617 21.9576 27.9035 21.7352 28.1225 21.6333L32.3659 19.66C32.4465 19.6226 32.5376 19.6025 32.6283 19.6025C32.7492 19.6025 32.8652 19.6364 32.9645 19.6998L32.9647 19.6999C33.1452 19.8149 33.2527 20.0109 33.2527 20.2255V20.2469C33.2527 20.4882 33.1108 20.7106 32.8918 20.8125C32.8918 20.8125 32.8917 20.8125 32.8917 20.8125L30.2374 22.0459L29.8448 22.2283L30.2374 22.4107L32.8917 23.644L32.8917 23.644C33.1108 23.7457 33.2527 23.9682 33.2527 24.2096Z" fill="white" stroke="#00132C" stroke-width="0.402299"/>
<path d="M36.3588 17.6869L36.3589 17.6865C36.4419 17.4274 36.6802 17.2534 36.9531 17.2534H36.9742C37.1723 17.2534 37.3609 17.3492 37.4778 17.5093C37.5948 17.6696 37.6285 17.8786 37.5678 18.0672L34.7723 26.7293L34.7722 26.7298C34.6893 26.9889 34.4511 27.1628 34.1785 27.1628H34.1573C33.9593 27.1628 33.7707 27.067 33.6537 26.9071C33.537 26.7471 33.503 26.5385 33.563 26.3495C33.5631 26.3494 33.5631 26.3493 33.5631 26.3492L36.3588 17.6869Z" fill="white" stroke="#00132C" stroke-width="0.402299"/>
<path d="M38.1688 19.6996L38.1687 19.6996C37.9877 19.8149 37.8802 20.0109 37.8802 20.2254V20.2469C37.8802 20.4877 38.0219 20.7104 38.2414 20.8128C38.2414 20.8128 38.2415 20.8128 38.2415 20.8129L40.8955 22.0459L41.2882 22.2283L40.8955 22.4107L38.2412 23.6439L38.2412 23.6439C38.0222 23.7457 37.8802 23.9681 37.8802 24.2095V24.2311C37.8802 24.4451 37.9875 24.641 38.1687 24.7569C38.2692 24.8209 38.385 24.8547 38.5041 24.8547C38.5952 24.8547 38.6832 24.8354 38.7674 24.7965C38.7674 24.7965 38.7675 24.7965 38.7676 24.7965L43.0106 22.8232C43.0107 22.8232 43.0107 22.8232 43.0108 22.8232C43.2298 22.721 43.3714 22.4985 43.3714 22.2578V22.199C43.3712 21.9576 43.2293 21.7351 43.0103 21.6332L38.1688 19.6996ZM38.1688 19.6996C38.2679 19.6364 38.384 19.6025 38.5049 19.6025C38.5957 19.6025 38.6866 19.6226 38.7667 19.6598C38.7667 19.6599 38.7667 19.6599 38.7667 19.6599L43.0103 21.6332L38.1688 19.6996Z" fill="white" stroke="#00132C" stroke-width="0.402299"/>
</svg>
