<svg width="531" height="163" viewBox="0 0 531 163" fill="none" xmlns="http://www.w3.org/2000/svg">
<path d="M31.7808 131.3L26.4794 151.636H20.4827L17.2381 138.252L13.8776 151.636H7.88085L2.72424 131.3H8.0257L10.9516 146.103L14.5728 131.3H20.0192L23.4955 146.103L26.4504 131.3H31.7808ZM36.7566 133.791C35.8875 133.791 35.1729 133.54 34.6129 133.038C34.0721 132.516 33.8017 131.879 33.8017 131.126C33.8017 130.353 34.0721 129.716 34.6129 129.214C35.1729 128.692 35.8875 128.432 36.7566 128.432C37.6064 128.432 38.3017 128.692 38.8424 129.214C39.4025 129.716 39.6826 130.353 39.6826 131.126C39.6826 131.879 39.4025 132.516 38.8424 133.038C38.3017 133.54 37.6064 133.791 36.7566 133.791ZM39.219 135.471V151.636H34.2652V135.471H39.219ZM52.6587 135.297C54.5514 135.297 56.0578 135.915 57.178 137.152C58.3175 138.368 58.8872 140.048 58.8872 142.192V151.636H53.9624V142.859C53.9624 141.777 53.6823 140.937 53.1222 140.338C52.5622 139.739 51.8089 139.44 50.8626 139.44C49.9163 139.44 49.163 139.739 48.603 140.338C48.0429 140.937 47.7628 141.777 47.7628 142.859V151.636H42.809V135.471H47.7628V137.615C48.265 136.9 48.9409 136.34 49.7907 135.935C50.6405 135.51 51.5965 135.297 52.6587 135.297ZM72.1793 135.297C74.072 135.297 75.5784 135.915 76.6986 137.152C77.8381 138.368 78.4078 140.048 78.4078 142.192V151.636H73.483V142.859C73.483 141.777 73.2029 140.937 72.6428 140.338C72.0828 139.739 71.3295 139.44 70.3832 139.44C69.4369 139.44 68.6836 139.739 68.1236 140.338C67.5635 140.937 67.2834 141.777 67.2834 142.859V151.636H62.3296V135.471H67.2834V137.615C67.7856 136.9 68.4615 136.34 69.3113 135.935C70.1611 135.51 71.1171 135.297 72.1793 135.297ZM97.0883 143.293C97.0883 143.757 97.0593 144.239 97.0014 144.742H85.7901C85.8674 145.746 86.186 146.518 86.7461 147.059C87.3255 147.581 88.0304 147.841 88.8609 147.841C90.0969 147.841 90.9564 147.32 91.4392 146.277H96.7117C96.4413 147.339 95.9488 148.295 95.2342 149.145C94.539 149.995 93.6602 150.661 92.598 151.144C91.5358 151.627 90.348 151.868 89.0347 151.868C87.451 151.868 86.0412 151.53 84.8051 150.854C83.5691 150.178 82.6034 149.213 81.9082 147.957C81.2129 146.702 80.8653 145.234 80.8653 143.554C80.8653 141.874 81.2032 140.406 81.8792 139.15C82.5745 137.895 83.5401 136.929 84.7762 136.253C86.0122 135.577 87.4317 135.24 89.0347 135.24C90.5991 135.24 91.9896 135.568 93.2063 136.224C94.4231 136.881 95.3694 137.818 96.0454 139.035C96.7406 140.251 97.0883 141.671 97.0883 143.293ZM92.0186 141.989C92.0186 141.14 91.7289 140.464 91.1495 139.962C90.5701 139.459 89.8459 139.208 88.9768 139.208C88.1463 139.208 87.4414 139.45 86.862 139.933C86.3019 140.415 85.9543 141.101 85.8191 141.989H92.0186ZM104.655 138.165C105.235 137.277 105.959 136.582 106.828 136.08C107.697 135.558 108.663 135.297 109.725 135.297V140.541H108.364C107.128 140.541 106.201 140.811 105.583 141.352C104.964 141.874 104.655 142.801 104.655 144.133V151.636H99.7017V135.471H104.655V138.165ZM118.669 151.868C117.259 151.868 116.004 151.627 114.903 151.144C113.802 150.661 112.933 150.004 112.296 149.174C111.658 148.324 111.301 147.378 111.224 146.335H116.12C116.178 146.895 116.438 147.349 116.902 147.696C117.365 148.044 117.935 148.218 118.611 148.218C119.229 148.218 119.702 148.102 120.031 147.87C120.378 147.619 120.552 147.301 120.552 146.914C120.552 146.451 120.311 146.113 119.828 145.9C119.345 145.669 118.563 145.418 117.481 145.147C116.323 144.877 115.357 144.597 114.584 144.307C113.812 143.998 113.146 143.525 112.585 142.888C112.025 142.231 111.745 141.352 111.745 140.251C111.745 139.324 111.996 138.484 112.499 137.731C113.02 136.958 113.773 136.35 114.758 135.906C115.762 135.462 116.95 135.24 118.321 135.24C120.349 135.24 121.943 135.742 123.101 136.746C124.28 137.75 124.956 139.083 125.129 140.744H120.552C120.475 140.184 120.224 139.739 119.799 139.411C119.393 139.083 118.853 138.919 118.177 138.919C117.597 138.919 117.153 139.035 116.844 139.266C116.535 139.479 116.381 139.778 116.381 140.164C116.381 140.628 116.622 140.976 117.105 141.207C117.607 141.439 118.379 141.671 119.422 141.903C120.62 142.212 121.595 142.521 122.348 142.83C123.101 143.119 123.758 143.602 124.318 144.278C124.898 144.935 125.197 145.823 125.216 146.943C125.216 147.89 124.946 148.739 124.405 149.493C123.884 150.227 123.121 150.806 122.117 151.231C121.132 151.656 119.982 151.868 118.669 151.868ZM162.371 131.3L157.069 151.636H151.073L147.828 138.252L144.468 151.636H138.471L133.314 131.3H138.616L141.542 146.103L145.163 131.3H150.609L154.085 146.103L157.04 131.3H162.371ZM167.347 133.791C166.477 133.791 165.763 133.54 165.203 133.038C164.662 132.516 164.392 131.879 164.392 131.126C164.392 130.353 164.662 129.716 165.203 129.214C165.763 128.692 166.477 128.432 167.347 128.432C168.196 128.432 168.892 128.692 169.432 129.214C169.992 129.716 170.273 130.353 170.273 131.126C170.273 131.879 169.992 132.516 169.432 133.038C168.892 133.54 168.196 133.791 167.347 133.791ZM169.809 135.471V151.636H164.855V135.471H169.809ZM183.249 135.297C185.141 135.297 186.648 135.915 187.768 137.152C188.907 138.368 189.477 140.048 189.477 142.192V151.636H184.552V142.859C184.552 141.777 184.272 140.937 183.712 140.338C183.152 139.739 182.399 139.44 181.453 139.44C180.506 139.44 179.753 139.739 179.193 140.338C178.633 140.937 178.353 141.777 178.353 142.859V151.636H173.399V135.471H178.353V137.615C178.855 136.9 179.531 136.34 180.381 135.935C181.23 135.51 182.186 135.297 183.249 135.297Z" fill="black"/>
<path d="M38.1564 2.68167L62.6583 18.6467C64.7938 20.0381 66.0816 22.4144 66.0816 24.9632V53.0367C66.0816 55.5855 64.7938 57.9618 62.6583 59.3532L38.1564 75.3182C35.6547 76.9483 32.4267 76.9483 29.925 75.3182L5.42314 59.3532C3.28765 57.9618 1.99982 55.5855 1.99982 53.0367V24.9632C1.99982 22.4144 3.28765 20.0381 5.42314 18.6467L29.925 2.68167C32.4267 1.0516 35.6547 1.0516 38.1564 2.68167Z" stroke="black" stroke-width="2.3197"/>
<path d="M8.95892 24.3571V52.7735L18.6588 40.0251C18.887 39.7252 19.336 39.7191 19.5722 40.0128L29.8362 52.7735V12.4686" stroke="black" stroke-width="4.63941" stroke-linecap="round" stroke-linejoin="round"/>
<path d="M59.1226 24.3571V52.7735L49.4228 40.0251C49.1946 39.7252 48.7455 39.7191 48.5093 40.0128L38.2453 52.7735C38.2453 37.0334 38.2453 28.2086 38.2453 12.4686" stroke="black" stroke-width="4.63941" stroke-linecap="round" stroke-linejoin="round"/>
</svg>
